<svg width="89" height="88" viewBox="0 0 89 88" fill="none" xmlns="http://www.w3.org/2000/svg">
<path fill-rule="evenodd" clip-rule="evenodd" d="M13.95 43.4085C13.95 26.8631 27.3626 13.4504 43.908 13.4504C60.4534 13.4504 73.866 26.8631 73.866 43.4085C73.866 59.9539 60.4534 73.3665 43.908 73.3665C27.3626 73.3665 13.95 59.9539 13.95 43.4085ZM43.908 7.45044C24.0489 7.45044 7.94995 23.5494 7.94995 43.4085C7.94995 63.2676 24.0489 79.3665 43.908 79.3665C52.3215 79.3665 60.0602 76.4769 66.1857 71.636L77.3699 82.7913C78.543 83.9613 80.4425 83.9588 81.6126 82.7857C82.7826 81.6126 82.7802 79.7132 81.6071 78.5431L70.5706 67.5353C76.3473 61.1555 79.866 52.6929 79.866 43.4085C79.866 23.5494 63.7671 7.45044 43.908 7.45044ZM35.2259 34.7319C36.3959 33.5588 38.2954 33.5563 39.4685 34.7264L43.8052 39.0518L48.1305 34.7151C49.3006 33.542 51.2001 33.5396 52.3732 34.7096C53.5463 35.8797 53.5487 37.7791 52.3787 38.9522L48.0533 43.2889L52.39 47.6143C53.5631 48.7843 53.5655 50.6838 52.3955 51.8569C51.2254 53.03 49.3259 53.0325 48.1528 51.8624L43.8162 47.537L39.4908 51.8737C38.3208 53.0468 36.4213 53.0492 35.2482 51.8792C34.0751 50.7091 34.0726 48.8097 35.2427 47.6366L39.568 43.2999L35.2314 38.9745C34.0583 37.8045 34.0558 35.905 35.2259 34.7319Z" fill="#A4799D"/>
<path fill-rule="evenodd" clip-rule="evenodd" d="M13.95 43.4085C13.95 26.8631 27.3626 13.4504 43.908 13.4504C60.4534 13.4504 73.866 26.8631 73.866 43.4085C73.866 59.9539 60.4534 73.3665 43.908 73.3665C27.3626 73.3665 13.95 59.9539 13.95 43.4085ZM43.908 7.45044C24.0489 7.45044 7.94995 23.5494 7.94995 43.4085C7.94995 63.2676 24.0489 79.3665 43.908 79.3665C52.3215 79.3665 60.0602 76.4769 66.1857 71.636L77.3699 82.7913C78.543 83.9613 80.4425 83.9588 81.6126 82.7857C82.7826 81.6126 82.7802 79.7132 81.6071 78.5431L70.5706 67.5353C76.3473 61.1555 79.866 52.6929 79.866 43.4085C79.866 23.5494 63.7671 7.45044 43.908 7.45044ZM35.2259 34.7319C36.3959 33.5588 38.2954 33.5563 39.4685 34.7264L43.8052 39.0518L48.1305 34.7151C49.3006 33.542 51.2001 33.5396 52.3732 34.7096C53.5463 35.8797 53.5487 37.7791 52.3787 38.9522L48.0533 43.2889L52.39 47.6143C53.5631 48.7843 53.5655 50.6838 52.3955 51.8569C51.2254 53.03 49.3259 53.0325 48.1528 51.8624L43.8162 47.537L39.4908 51.8737C38.3208 53.0468 36.4213 53.0492 35.2482 51.8792C34.0751 50.7091 34.0726 48.8097 35.2427 47.6366L39.568 43.2999L35.2314 38.9745C34.0583 37.8045 34.0558 35.905 35.2259 34.7319Z" fill="url(#paint0_linear_569_5642)"/>
<defs>
<linearGradient id="paint0_linear_569_5642" x1="45.2192" y1="7.45044" x2="45.2192" y2="83.6672" gradientUnits="userSpaceOnUse">
<stop stop-color="#4C99D2"/>
<stop offset="1" stop-color="#268DD9"/>
</linearGradient>
</defs>
</svg>
