<svg width="16" height="12" viewBox="0 0 16 12" fill="none" xmlns="http://www.w3.org/2000/svg">
<path fill-rule="evenodd" clip-rule="evenodd" d="M15.3404 4.90429C15.2389 5.00294 15.1011 5.05931 14.956 5.05931C14.4192 5.05931 13.984 5.48209 13.984 5.99648C13.984 6.51439 14.4142 6.93506 14.9458 6.94069C15.2454 6.94351 15.5 7.14645 15.5 7.43746V9.24486C15.5 10.7662 14.2307 12 12.6639 12H10.2993C10.0549 12 9.85687 11.8076 9.85687 11.5702V10.0482C9.85687 9.7522 9.61751 9.51967 9.31286 9.51967C9.01547 9.51967 8.76886 9.7522 8.76886 10.0482V11.5702C8.76886 11.8076 8.57084 12 8.32713 12H3.33607C1.7766 12 0.5 10.7669 0.5 9.24486V7.43746C0.5 7.14645 0.754594 6.94351 1.05416 6.94069C1.58656 6.93506 2.01596 6.51439 2.01596 5.99648C2.01596 5.49618 1.59526 5.11568 1.044 5.11568C0.898936 5.11568 0.761122 5.05931 0.659574 4.96066C0.558027 4.86201 0.5 4.72813 0.5 4.5872V2.76218C0.5 1.24298 1.7795 0 3.34333 0H8.32713C8.57084 0 8.76886 0.192366 8.76886 0.42983V2.23371C8.76886 2.52261 9.01547 2.76218 9.31286 2.76218C9.61751 2.76218 9.85687 2.52261 9.85687 2.23371V0.42983C9.85687 0.192366 10.0549 0 10.2993 0H12.6639C14.2307 0 15.5 1.23312 15.5 2.75514V4.53083C15.5 4.67176 15.442 4.80564 15.3404 4.90429ZM9.31286 8.15267C9.61751 8.15267 9.85687 7.91309 9.85687 7.62419V4.80564C9.85687 4.51674 9.61751 4.27716 9.31286 4.27716C9.01547 4.27716 8.76886 4.51674 8.76886 4.80564V7.62419C8.76886 7.91309 9.01547 8.15267 9.31286 8.15267Z" fill="#82868A"/>
</svg>
