<svg width="100" height="101" viewBox="0 0 100 101" fill="none" xmlns="http://www.w3.org/2000/svg">
<rect x="18.3916" y="18.8916" width="19.0843" height="19.0843" rx="7" fill="white"/>
<path d="M17.7952 12.1205C14.385 12.1205 11.6205 14.885 11.6205 18.2952V38.5723C11.6205 41.9825 14.385 44.747 17.7952 44.747H38.0723C41.4825 44.747 44.247 41.9825 44.247 38.5723V18.2952C44.247 14.885 41.4825 12.1205 38.0723 12.1205H17.7952Z" stroke="white" stroke-width="4"/>
<rect x="62.524" y="18.8916" width="19.0843" height="19.0843" rx="7" fill="white"/>
<path d="M61.9278 12.1205C58.5176 12.1205 55.7531 14.885 55.7531 18.2952V38.5723C55.7531 41.9825 58.5176 44.747 61.9278 44.747H82.2049C85.6151 44.747 88.3796 41.9825 88.3796 38.5723V18.2952C88.3796 14.885 85.615 12.1205 82.2049 12.1205H61.9278Z" stroke="white" stroke-width="4"/>
<rect x="18.3916" y="63.0241" width="19.0843" height="19.0843" rx="7" fill="white"/>
<rect x="55.3674" y="56.4639" width="11.3313" height="11.3313" rx="5.66566" fill="white"/>
<rect x="76.8374" y="77.9337" width="11.3313" height="11.3313" rx="5.66566" fill="white"/>
<rect x="72.6626" y="56.4639" width="15.506" height="15.506" rx="7" fill="white"/>
<rect x="55.3674" y="73.759" width="15.506" height="15.506" rx="7" fill="white"/>
<path d="M17.7952 56.253C14.385 56.253 11.6205 59.0175 11.6205 62.4277V82.7048C11.6205 86.115 14.385 88.8795 17.7952 88.8795H38.0723C41.4825 88.8795 44.247 86.115 44.247 82.7048V62.4277C44.247 59.0175 41.4825 56.253 38.0723 56.253H17.7952Z" stroke="white" stroke-width="4"/>
<mask id="path-11-outside-1_56_787" maskUnits="userSpaceOnUse" x="-0.5" y="0" width="29" height="29" fill="black">
<rect fill="white" x="-0.5" width="29" height="29"/>
<path fill-rule="evenodd" clip-rule="evenodd" d="M27.3373 2.41249C27.3373 1.63239 26.705 1 25.9249 1H13.9187C7.88255 1 4.86449 1 2.8834 2.73816C2.65451 2.93898 2.43898 3.15451 2.23816 3.3834C0.5 5.36449 0.5 8.38255 0.5 14.4187V26.4249C0.5 27.205 1.13239 27.8373 1.91248 27.8373C2.69258 27.8373 3.32497 27.205 3.32497 26.4249V15.8312C3.32497 11.1475 3.32497 8.80569 4.40049 7.09665C4.95885 6.20939 5.70937 5.45887 6.59663 4.9005C8.30567 3.82499 10.6475 3.82499 15.3312 3.82499H25.9249C26.705 3.82499 27.3373 3.19259 27.3373 2.41249Z"/>
</mask>
<path fill-rule="evenodd" clip-rule="evenodd" d="M27.3373 2.41249C27.3373 1.63239 26.705 1 25.9249 1H13.9187C7.88255 1 4.86449 1 2.8834 2.73816C2.65451 2.93898 2.43898 3.15451 2.23816 3.3834C0.5 5.36449 0.5 8.38255 0.5 14.4187V26.4249C0.5 27.205 1.13239 27.8373 1.91248 27.8373C2.69258 27.8373 3.32497 27.205 3.32497 26.4249V15.8312C3.32497 11.1475 3.32497 8.80569 4.40049 7.09665C4.95885 6.20939 5.70937 5.45887 6.59663 4.9005C8.30567 3.82499 10.6475 3.82499 15.3312 3.82499H25.9249C26.705 3.82499 27.3373 3.19259 27.3373 2.41249Z" fill="white"/>
<path d="M6.59663 4.9005L6.33032 4.47733L6.59663 4.9005ZM13.9187 1.5H25.9249V0.5H13.9187V1.5ZM1 26.4249V14.4187H0V26.4249H1ZM3.82497 26.4249V15.8312H2.82497V26.4249H3.82497ZM15.3312 4.32499H25.9249V3.32499H15.3312V4.32499ZM25.9249 4.32499C26.9811 4.32499 27.8373 3.46873 27.8373 2.41249H26.8373C26.8373 2.91645 26.4288 3.32499 25.9249 3.32499V4.32499ZM3.82497 15.8312C3.82497 13.4794 3.82552 11.7515 3.95707 10.3968C4.08787 9.04969 4.34446 8.12443 4.82366 7.36296L3.97731 6.83034C3.38099 7.77792 3.09983 8.87808 2.96175 10.3001C2.82442 11.7144 2.82497 13.4992 2.82497 15.8312H3.82497ZM15.3312 3.32499C12.9992 3.32499 11.2144 3.32444 9.80009 3.46177C8.37806 3.59985 7.2779 3.88101 6.33032 4.47733L6.86294 5.32368C7.62441 4.84448 8.54967 4.58789 9.89674 4.45709C11.2515 4.32554 12.9794 4.32499 15.3312 4.32499V3.32499ZM4.82366 7.36296C5.34214 6.53907 6.03905 5.84216 6.86294 5.32368L6.33032 4.47733C5.37968 5.07557 4.57555 5.8797 3.97731 6.83034L4.82366 7.36296ZM1.91248 28.3373C2.96872 28.3373 3.82497 27.4811 3.82497 26.4249H2.82497C2.82497 26.9288 2.41644 27.3373 1.91248 27.3373V28.3373ZM0 26.4249C0 27.4811 0.856249 28.3373 1.91248 28.3373V27.3373C1.40853 27.3373 1 26.9288 1 26.4249H0ZM25.9249 1.5C26.4288 1.5 26.8373 1.90854 26.8373 2.41249H27.8373C27.8373 1.35625 26.9811 0.5 25.9249 0.5V1.5ZM13.9187 0.5C10.9135 0.5 8.61351 0.499103 6.81902 0.721051C5.01246 0.944493 3.64996 1.40043 2.55364 2.36231L3.21315 3.11401C4.09792 2.33773 5.235 1.92459 6.94177 1.71349C8.66062 1.5009 10.8877 1.5 13.9187 1.5V0.5ZM1 14.4187C1 11.3877 1.0009 9.16062 1.21349 7.44177C1.42459 5.735 1.83773 4.59792 2.61401 3.71315L1.86231 3.05364C0.90043 4.14996 0.444493 5.51246 0.221051 7.31902C-0.000896752 9.11351 0 11.4135 0 14.4187H1ZM2.55364 2.36231C2.30841 2.57747 2.07747 2.80841 1.86231 3.05364L2.61401 3.71315C2.80048 3.50062 3.00062 3.30048 3.21315 3.11401L2.55364 2.36231Z" fill="white" mask="url(#path-11-outside-1_56_787)"/>
<mask id="path-13-outside-2_56_787" maskUnits="userSpaceOnUse" x="71.5" y="72" width="29" height="29" fill="black">
<rect fill="white" x="71.5" y="72" width="29" height="29"/>
<path fill-rule="evenodd" clip-rule="evenodd" d="M72.6627 98.5875C72.6627 99.3676 73.295 100 74.0751 100L86.0813 100C92.1175 100 95.1355 100 97.1166 98.2618C97.3455 98.061 97.561 97.8455 97.7618 97.6166C99.5 95.6355 99.5 92.6175 99.5 86.5813L99.5 74.5751C99.5 73.795 98.8676 73.1627 98.0875 73.1627C97.3074 73.1627 96.675 73.795 96.675 74.5751L96.675 85.1688C96.675 89.8525 96.675 92.1943 95.5995 93.9034C95.0412 94.7906 94.2906 95.5411 93.4034 96.0995C91.6943 97.175 89.3525 97.175 84.6688 97.175L74.0751 97.175C73.295 97.175 72.6627 97.8074 72.6627 98.5875Z"/>
</mask>
<path fill-rule="evenodd" clip-rule="evenodd" d="M72.6627 98.5875C72.6627 99.3676 73.295 100 74.0751 100L86.0813 100C92.1175 100 95.1355 100 97.1166 98.2618C97.3455 98.061 97.561 97.8455 97.7618 97.6166C99.5 95.6355 99.5 92.6175 99.5 86.5813L99.5 74.5751C99.5 73.795 98.8676 73.1627 98.0875 73.1627C97.3074 73.1627 96.675 73.795 96.675 74.5751L96.675 85.1688C96.675 89.8525 96.675 92.1943 95.5995 93.9034C95.0412 94.7906 94.2906 95.5411 93.4034 96.0995C91.6943 97.175 89.3525 97.175 84.6688 97.175L74.0751 97.175C73.295 97.175 72.6627 97.8074 72.6627 98.5875Z" fill="white"/>
<path d="M96.675 74.5751L97.175 74.5751L96.675 74.5751ZM86.0813 99.5L74.0751 99.5L74.0751 100.5L86.0813 100.5L86.0813 99.5ZM99 74.5751L99 86.5813L100 86.5813L100 74.5751L99 74.5751ZM96.175 74.5751L96.175 85.1688L97.175 85.1688L97.175 74.5751L96.175 74.5751ZM84.6688 96.675L74.0751 96.675L74.0751 97.675L84.6688 97.675L84.6688 96.675ZM74.0751 96.675C73.0189 96.675 72.1627 97.5313 72.1627 98.5875L73.1627 98.5875C73.1627 98.0836 73.5712 97.675 74.0751 97.675L74.0751 96.675ZM96.175 85.1688C96.175 87.5206 96.1745 89.2485 96.0429 90.6033C95.9121 91.9503 95.6555 92.8756 95.1763 93.637L96.0227 94.1697C96.619 93.2221 96.9002 92.1219 97.0383 90.6999C97.1756 89.2856 97.175 87.5008 97.175 85.1688L96.175 85.1688ZM84.6688 97.675C87.0008 97.675 88.7856 97.6756 90.1999 97.5382C91.6219 97.4002 92.7221 97.119 93.6697 96.5227L93.1371 95.6763C92.3756 96.1555 91.4503 96.4121 90.1033 96.5429C88.7485 96.6745 87.0206 96.675 84.6688 96.675L84.6688 97.675ZM95.1763 93.637C94.6579 94.4609 93.9609 95.1578 93.1371 95.6763L93.6697 96.5227C94.6203 95.9244 95.4244 95.1203 96.0227 94.1697L95.1763 93.637ZM98.0875 72.6627C97.0313 72.6627 96.175 73.5189 96.175 74.5751L97.175 74.5751C97.175 74.0712 97.5836 73.6627 98.0875 73.6627L98.0875 72.6627ZM100 74.5751C100 73.5189 99.1438 72.6627 98.0875 72.6627L98.0875 73.6627C98.5915 73.6627 99 74.0712 99 74.5751L100 74.5751ZM74.0751 99.5C73.5712 99.5 73.1627 99.0915 73.1627 98.5875L72.1627 98.5875C72.1627 99.6437 73.0189 100.5 74.0751 100.5L74.0751 99.5ZM86.0813 100.5C89.0865 100.5 91.3865 100.501 93.181 100.279C94.9875 100.056 96.35 99.5996 97.4464 98.6377L96.7868 97.886C95.9021 98.6623 94.765 99.0754 93.0582 99.2865C91.3394 99.4991 89.1123 99.5 86.0813 99.5L86.0813 100.5ZM99 86.5813C99 89.6123 98.9991 91.8394 98.7865 93.5582C98.5754 95.265 98.1623 96.4021 97.386 97.2868L98.1377 97.9464C99.0996 96.85 99.5555 95.4875 99.7789 93.681C100.001 91.8865 100 89.5865 100 86.5813L99 86.5813ZM97.4464 98.6377C97.6916 98.4225 97.9225 98.1916 98.1377 97.9464L97.386 97.2868C97.1995 97.4994 96.9994 97.6995 96.7868 97.886L97.4464 98.6377Z" fill="white" mask="url(#path-13-outside-2_56_787)"/>
</svg>
